<svg width="29" height="29" viewBox="0 0 29 29" fill="none" xmlns="http://www.w3.org/2000/svg">
<path d="M14.5002 0.645828C10.8258 0.645828 7.30195 2.10546 4.70379 4.70362C2.10563 7.30178 0.645996 10.8256 0.645996 14.5C0.645996 18.1743 2.10563 21.6982 4.70379 24.2964C7.30195 26.8945 10.8258 28.3542 14.5002 28.3542C18.1745 28.3542 21.6984 26.8945 24.2965 24.2964C26.8947 21.6982 28.3543 18.1743 28.3543 14.5C28.3543 10.8256 26.8947 7.30178 24.2965 4.70362C21.6984 2.10546 18.1745 0.645828 14.5002 0.645828V0.645828Z" fill="#039BE5"/>
<path d="M16.3755 18.1721H19.9608L20.5238 14.5299H16.3748V12.5393C16.3748 11.0262 16.8692 9.68458 18.2845 9.68458H20.5587V6.50614C20.1592 6.45219 19.3141 6.33406 17.7172 6.33406C14.3827 6.33406 12.4278 8.095 12.4278 12.1069V14.5299H9V18.1721H12.4278V28.1828C13.1067 28.2849 13.7943 28.3542 14.5001 28.3542C15.1381 28.3542 15.7608 28.2958 16.3755 28.2127V18.1721Z" fill="white"/>
</svg>
