<svg width="35" height="35" viewBox="0 0 35 35" fill="none" xmlns="http://www.w3.org/2000/svg">
<path d="M32.8127 11.8125L29.1668 13.8177L25.521 17.2812V29.1667H30.6252C31.8334 29.1667 32.8127 28.1874 32.8127 26.9792V11.8125Z" fill="#4CAF50"/>
<path d="M2.1875 11.8125L4.82271 13.0594L9.47917 17.2812V29.1667H4.375C3.16677 29.1667 2.1875 28.1874 2.1875 26.9792V11.8125Z" fill="#1E88E5"/>
<path d="M25.5208 8.16667L17.5 14.1823L9.47917 8.16667L8.75 12.3958L9.47917 17.2813L17.5 23.2969L25.5208 17.2813L26.25 12.3958L25.5208 8.16667Z" fill="#E53935"/>
<path d="M2.1875 8.96729V11.8125L9.47917 17.2812V8.16666L7.20125 6.45968C6.65875 6.05281 5.99958 5.83333 5.32146 5.83333C3.59042 5.83333 2.1875 7.23625 2.1875 8.96729Z" fill="#C62828"/>
<path d="M32.8127 8.96729V11.8125L25.521 17.2812V8.16666L27.7989 6.45968C28.3414 6.05281 29.0006 5.83333 29.6787 5.83333C31.4097 5.83333 32.8127 7.23625 32.8127 8.96729Z" fill="#FBC02D"/>
</svg>
