<svg width="35" height="35" viewBox="0 0 35 35" fill="none" xmlns="http://www.w3.org/2000/svg">
<path d="M26.0751 19.2208H26.0824C26.0824 19.2208 23.3335 23.2531 21.022 26.25C19.0241 28.8385 18.4408 31.0552 18.273 32.1271C18.2074 32.5208 17.8866 32.8125 17.5001 32.8125C17.1137 32.8125 16.7928 32.5208 16.7272 32.1271C16.5595 31.0552 15.9762 28.8385 13.9783 26.25C13.672 25.849 13.3585 25.4333 13.0449 25.0104L20.5918 16.0417L26.6658 8.83749C27.3366 10.2448 27.7085 11.8198 27.7085 13.4896C27.7085 15.6042 27.1033 17.5656 26.0751 19.2208Z" fill="#48B564"/>
<path d="M20.5918 16.0417L13.0449 25.0104C10.9887 22.2542 8.91784 19.2208 8.91784 19.2208H8.92513C8.70638 18.8708 8.50951 18.5135 8.3418 18.1417L14.4085 10.9375C13.8324 11.6302 13.4897 12.5198 13.4897 13.4896C13.4897 15.7063 15.2835 17.5 17.5001 17.5C18.747 17.5 19.8626 16.9313 20.5918 16.0417Z" fill="#FCC60E"/>
<path d="M20.7086 3.45625L14.4596 10.8792L9.67627 6.70834C11.5429 4.38959 14.3575 2.91667 17.5002 2.91667C18.6231 2.91667 19.7023 3.10625 20.7086 3.45625Z" fill="#2C85EB"/>
<path d="M14.4592 10.8792L14.4082 10.9375L8.3415 18.1417C7.67067 16.7344 7.2915 15.1594 7.2915 13.4896C7.2915 10.9083 8.18838 8.53854 9.67588 6.70833L14.4592 10.8792Z" fill="#ED5748"/>
<path d="M20.5915 16.0417C21.1676 15.349 21.5103 14.4594 21.5103 13.4896C21.5103 11.2729 19.7165 9.47917 17.4999 9.47917C16.253 9.47917 15.1374 10.0479 14.4082 10.9375L20.7082 3.45625C23.3259 4.34584 25.4697 6.30729 26.6655 8.8375L20.5915 16.0417Z" fill="#5695F6"/>
</svg>
