<svg width="31" height="31" viewBox="0 0 31 31" fill="none" xmlns="http://www.w3.org/2000/svg">
<path fill-rule="evenodd" clip-rule="evenodd" d="M1.5498 29.5751L3.51418 22.4037C2.3023 20.3052 1.66501 17.9237 1.66574 15.4847C1.66939 7.85395 7.87897 1.64583 15.5104 1.64583C19.2139 1.64729 22.6891 3.08885 25.3031 5.70437C27.9165 8.32062 29.3558 11.7973 29.3544 15.4956C29.3515 23.1263 23.1404 29.3352 15.5104 29.3352C15.5097 29.3352 15.5104 29.3352 15.5104 29.3352H15.5046C13.188 29.3345 10.9108 28.7533 8.88887 27.6501L1.5498 29.5751Z" fill="white"/>
<path fill-rule="evenodd" clip-rule="evenodd" d="M1.54981 29.9397C1.45356 29.9397 1.36023 29.9018 1.29096 29.8318C1.19981 29.7392 1.16408 29.6043 1.19835 29.4796L3.12262 22.4533C1.92971 20.3344 1.30044 17.9281 1.30189 15.4854C1.30481 7.65271 7.67846 1.28125 15.5104 1.28125C19.3094 1.28271 22.8787 2.76219 25.5613 5.44698C28.2439 8.1325 29.7204 11.701 29.719 15.4956C29.7161 23.3276 23.3417 29.6998 15.5104 29.6998C13.1851 29.6991 10.8846 29.1252 8.84294 28.0395L1.64242 29.9273C1.61179 29.936 1.58117 29.9397 1.54981 29.9397Z" fill="white"/>
<path fill-rule="evenodd" clip-rule="evenodd" d="M15.5104 1.64584C19.2138 1.6473 22.6891 3.08886 25.3031 5.70438C27.9164 8.32063 29.3558 11.7973 29.3544 15.4956C29.3514 23.1264 23.1404 29.3352 15.5104 29.3352H15.5046C13.188 29.3345 10.9108 28.7533 8.88884 27.6501L1.54978 29.5751L3.51415 22.4038C2.30228 20.3052 1.66499 17.9238 1.66572 15.4847C1.66936 7.85396 7.87895 1.64584 15.5104 1.64584ZM15.5104 0.916672C7.4779 0.916672 0.940196 7.45146 0.93655 15.4847C0.935821 17.9398 1.55561 20.3592 2.73103 22.5007L0.846133 29.3833C0.777592 29.6349 0.847592 29.9032 1.03134 30.0884C1.16988 30.2284 1.35728 30.305 1.54978 30.305C1.61176 30.305 1.67374 30.297 1.73499 30.2809L8.79842 28.4289C10.8605 29.4993 13.172 30.0644 15.5046 30.0651C23.5429 30.0651 30.0806 23.5296 30.0843 15.4964C30.0857 11.6033 28.5712 7.94292 25.8201 5.18959C23.0675 2.43553 19.4063 0.91813 15.5104 0.916672Z" fill="#CFD8DC"/>
<path fill-rule="evenodd" clip-rule="evenodd" d="M23.6491 7.35666C21.4762 5.18229 18.588 3.98426 15.5138 3.98354C9.16713 3.98354 4.00536 9.14312 4.00244 15.4854C4.00171 17.6591 4.60984 19.7751 5.76192 21.6075L6.03609 22.0428L4.87307 26.2873L9.22838 25.1454L9.64911 25.3948C11.4151 26.4433 13.4408 26.9975 15.5058 26.9982H15.5101C21.8524 26.9982 27.0142 21.8379 27.0164 15.4949C27.0171 12.4215 25.822 9.53104 23.6491 7.35666Z" fill="#40C351"/>
<path fill-rule="evenodd" clip-rule="evenodd" d="M12.0497 9.69947C11.7909 9.12343 11.5182 9.11177 11.271 9.10156C11.069 9.09281 10.8386 9.09354 10.6082 9.09354C10.3777 9.09354 10.0029 9.18031 9.68575 9.52666C9.36857 9.87302 8.47461 10.7094 8.47461 12.4112C8.47461 14.1131 9.71419 15.7581 9.88701 15.9885C10.0598 16.219 12.2801 19.8232 15.7962 21.2101C18.7179 22.3622 19.3129 22.1332 19.9473 22.0756C20.5817 22.018 21.9941 21.2393 22.2821 20.4313C22.5701 19.6234 22.5701 18.9315 22.4841 18.7871C22.3973 18.6427 22.1669 18.5567 21.8213 18.3831C21.4757 18.2096 19.7745 17.3732 19.4573 17.258C19.1401 17.1428 18.9097 17.0852 18.6786 17.4316C18.4482 17.7772 17.7853 18.5567 17.5834 18.7871C17.3814 19.0182 17.1794 19.0474 16.8338 18.8738C16.4882 18.7003 15.374 18.3357 14.052 17.1574C13.0239 16.2408 12.3297 15.1084 12.1277 14.7621C11.9258 14.4165 12.1059 14.2291 12.2794 14.0562C12.4347 13.9009 12.625 13.6523 12.7986 13.4503C12.9714 13.2483 13.029 13.104 13.1442 12.8735C13.2594 12.6424 13.2018 12.4404 13.115 12.2676C13.0297 12.0941 12.3574 10.3834 12.0497 9.69947Z" fill="white"/>
</svg>
